HIERARCHY
ROOT Hips
{
	OFFSET 0.000000 0.000000 0.000000
	CHANNELS 6 Xposition Yposition Zposition Zrotation Yrotation Xrotation 
	JOINT LHipJoint
	{
		OFFSET 0.000000 0.000000 0.000000
		CHANNELS 3 Zrotation Yrotation Xrotation
		JOINT LeftUpLeg
		{
			OFFSET 1.363060 -1.794630 0.839290
			CHANNELS 3 Zrotation Yrotation Xrotation
			JOINT LeftLeg
			{
				OFFSET 2.448110 -6.726130 0.000000
				CHANNELS 3 Zrotation Yrotation Xrotation
				JOINT LeftFoot
				{
					OFFSET 2.562200 -7.039590 0.000000
					CHANNELS 3 Zrotation Yrotation Xrotation
					JOINT LeftToeBase
					{
						OFFSET 0.157640 -0.433110 2.322550
						CHANNELS 3 Zrotation Yrotation Xrotation
						End Site
						{
							OFFSET 0.000000 0.000000 0.000000
						}
					}
				}
			}
		}
	}
	JOINT RHipJoint
	{
		OFFSET 0.000000 0.000000 0.000000
		CHANNELS 3 Zrotation Yrotation Xrotation
		JOINT RightUpLeg
		{
			OFFSET -1.305520 -1.794630 0.839290
			CHANNELS 3 Zrotation Yrotation Xrotation
			JOINT RightLeg
			{
				OFFSET -2.542530 -6.985550 0.000000
				CHANNELS 3 Zrotation Yrotation Xrotation
				JOINT RightFoot
				{
					OFFSET -2.568260 -7.056230 0.000000
					CHANNELS 3 Zrotation Yrotation Xrotation
					JOINT RightToeBase
					{
						OFFSET -0.164730 -0.452590 2.363150
						CHANNELS 3 Zrotation Yrotation Xrotation
						End Site
						{
							OFFSET 0.000000 0.000000 0.000000
						}
					}
				}
			}
		}
	}
	JOINT LowerBack
	{
		OFFSET 0.000000 0.000000 0.000000
		CHANNELS 3 Zrotation Yrotation Xrotation
		JOINT Spine
		{
			OFFSET 0.028270 2.035590 -0.193380
			CHANNELS 3 Zrotation Yrotation Xrotation
			JOINT Spine1
			{
				OFFSET 0.056720 2.048850 -0.042750
				CHANNELS 3 Zrotation Yrotation Xrotation
				JOINT Neck
				{
					OFFSET 0.000000 0.000000 0.000000
					CHANNELS 3 Zrotation Yrotation Xrotation
					JOINT Neck1
					{
						OFFSET -0.054170 1.746240 0.172020
						CHANNELS 3 Zrotation Yrotation Xrotation
						JOINT Head
						{
							OFFSET 0.104070 1.761360 -0.123970
							CHANNELS 3 Zrotation Yrotation Xrotation
							End Site
							{
								OFFSET 0.000000 0.000000 0.000000
							}
						}
					}
				}
				JOINT LeftShoulder
				{
					OFFSET 0.000000 0.000000 0.000000
					CHANNELS 3 Zrotation Yrotation Xrotation
					JOINT LeftArm
					{
						OFFSET 3.362410 1.200890 -0.311210
						CHANNELS 3 Zrotation Yrotation Xrotation
						JOINT LeftForeArm
						{
							OFFSET 4.983000 -0.000000 -0.000000
							CHANNELS 3 Zrotation Yrotation Xrotation
							JOINT LeftHand
							{
								OFFSET 3.483560 -0.000000 -0.000000
								CHANNELS 3 Zrotation Yrotation Xrotation
								JOINT LeftFingerBase
								{
									OFFSET 0.000000 0.000000 0.000000
									CHANNELS 3 Zrotation Yrotation Xrotation
									JOINT LeftHandIndex1
									{
										OFFSET 0.715260 -0.000000 -0.000000
										CHANNELS 3 Zrotation Yrotation Xrotation
										End Site
										{
											OFFSET 0.000000 0.000000 0.000000
										}
									}
								}
								JOINT LThumb
								{
									OFFSET 0.000000 0.000000 0.000000
									CHANNELS 3 Zrotation Yrotation Xrotation
									End Site
									{
										OFFSET 0.000000 0.000000 0.000000
									}
								}
							}
						}
					}
				}
				JOINT RightShoulder
				{
					OFFSET 0.000000 0.000000 0.000000
					CHANNELS 3 Zrotation Yrotation Xrotation
					JOINT RightArm
					{
						OFFSET -3.136600 1.374050 -0.404650
						CHANNELS 3 Zrotation Yrotation Xrotation
						JOINT RightForeArm
						{
							OFFSET -5.241900 -0.000000 -0.000000
							CHANNELS 3 Zrotation Yrotation Xrotation
							JOINT RightHand
							{
								OFFSET -3.444170 -0.000000 -0.000000
								CHANNELS 3 Zrotation Yrotation Xrotation
								JOINT RightFingerBase
								{
									OFFSET 0.000000 0.000000 0.000000
									CHANNELS 3 Zrotation Yrotation Xrotation
									JOINT RightHandIndex1
									{
										OFFSET -0.622530 -0.000000 -0.000000
										CHANNELS 3 Zrotation Yrotation Xrotation
										End Site
										{
											OFFSET 0.000000 0.000000 0.000000
										}
									}
								}
								JOINT RThumb
								{
									OFFSET 0.000000 0.000000 0.000000
									CHANNELS 3 Zrotation Yrotation Xrotation
									End Site
									{
										OFFSET 0.000000 0.000000 0.000000
									}
								}
							}
						}
					}
				}
			}
		}
	}
}
MOTION
Frames: 7
Frame Time: 0.008333
9.400679 17.659164 -26.353818 -2.249989 -17.370774 11.378950 -8.314432 -1.804363 -1.414898 -2.735674 -7.861588 -35.105517 0.790989 8.621345 23.449016 -3.493548 14.118496 11.060166 0.570000 -4.835100 -13.438900 6.017914 -1.716856 5.742960 14.997850 6.242625 12.959168 1.121483 -1.105444 4.549179 -0.903818 -0.167341 15.947775 -0.439400 4.253400 -11.790800 1.722997 1.710247 2.218333 1.424892 2.205592 -0.761271 -3.854989 1.243057 0.060031 -5.977903 -3.590537 -13.608362 4.188418 -4.056466 1.728891 1.467900 -2.011900 3.743400 -4.887516 -1.525325 -0.225034 -88.692942 9.504404 9.945290 12.328044 -13.456290 -1.601852 -1.975040 -1.594222 7.720326 20.725447 12.760092 5.941600 -7.125000 0.000000 0.000000 -4.734600 45.635100 -0.074400 2.103201 1.996890 0.093497 84.056047 -4.592175 10.961110 -16.647902 25.017458 -4.341941 1.045315 -1.567830 2.272196 -24.836571 33.831827 -15.648800 7.125000 0.000000 0.000000 3.866900 8.015200 4.377700 
9.397365 17.671919 -26.167218 -1.834476 -17.430864 11.236123 -8.453481 -1.784134 -1.322942 -3.209137 -8.072173 -34.689440 0.816189 8.631769 23.605081 -3.445315 14.052310 11.438983 0.422300 -4.170900 -11.558100 6.076979 -1.622614 5.659262 14.344937 6.700475 11.302431 0.954186 -2.480041 8.287755 -0.928486 -0.034199 16.070594 -0.091500 1.951000 -5.370200 1.172988 1.643831 1.973784 1.337917 2.105216 -0.759323 -3.674162 1.165348 0.241270 -6.359714 -3.616705 -14.018427 4.627336 -3.991952 2.038895 1.709200 -1.953300 3.959300 -4.940537 -1.551783 -0.206523 -88.560693 9.220787 8.398708 12.157387 -13.221423 -1.522780 -1.940066 -1.757477 10.473332 19.171065 15.065795 6.365200 -7.125000 0.000000 0.000000 -6.904800 48.077300 -0.526500 2.075414 2.013151 0.089729 84.107656 -4.703980 10.210620 -16.830853 25.270151 -4.431735 1.036522 -1.589833 2.354082 -24.889104 34.424974 -15.903700 7.125000 0.000000 0.000000 3.962300 8.649200 4.523100 
9.389029 17.684573 -25.990360 -1.552532 -17.420750 11.012833 -8.521133 -1.766359 -1.209112 -3.730137 -7.836957 -34.397312 0.842569 8.689704 23.893554 -3.241839 13.525735 11.783928 0.284300 -3.429400 -9.476500 6.088852 -1.538757 5.567694 13.973669 6.911886 10.222773 0.745149 -3.559016 11.277829 -0.998244 0.233086 16.566305 -0.037300 1.246100 -3.426200 0.716699 1.590074 1.948736 1.244348 2.033060 -0.730763 -3.533477 1.103967 0.379227 -6.684358 -3.708385 -14.644916 5.098619 -4.007585 2.463457 1.953400 -1.926400 4.268000 -4.990619 -1.578654 -0.184462 -88.196903 8.937664 7.528061 11.921109 -12.887916 -1.438099 -1.872686 -1.750951 12.249817 17.900670 15.521571 6.065600 -7.125000 0.000000 0.000000 -8.367600 48.379400 -0.702100 2.047292 2.048471 0.085369 84.250417 -4.743019 9.443240 -17.021753 25.522683 -4.529487 1.030600 -1.568347 2.405717 -24.832763 34.168343 -15.761700 7.125000 0.000000 0.000000 3.940600 8.352200 4.481100 
9.383003 17.694013 -25.817319 -1.627465 -17.352400 11.038022 -8.546320 -1.749843 -1.132418 -3.818915 -7.834292 -34.159812 0.894623 8.773091 24.203517 -3.196131 13.350961 11.692265 0.215800 -2.990500 -8.252300 6.105394 -1.465619 5.479151 13.926390 6.983128 9.256649 0.549983 -4.350196 13.527701 -1.108085 0.357966 17.960187 -0.064300 1.636100 -4.500900 0.668818 1.554997 1.802836 1.231561 1.989966 -0.766502 -3.532620 1.066071 0.435137 -6.803489 -3.775244 -14.769151 5.354029 -4.067699 2.548599 2.076400 -1.939000 4.337400 -5.048689 -1.616926 -0.146421 -87.930328 8.448656 6.240198 11.492871 -12.250895 -1.296672 -1.864374 -1.538620 13.741458 17.600686 14.392540 5.535700 -7.125000 0.000000 0.000000 -8.315500 46.994700 -0.412100 2.033727 2.070396 0.073283 84.325300 -5.007280 8.917064 -17.343729 25.948558 -4.694128 1.053822 -1.498638 1.922831 -24.937604 33.322476 -15.501200 7.125000 0.000000 0.000000 3.703500 7.456600 4.160900 
9.377078 17.702249 -25.647893 -1.543666 -17.405118 11.018519 -8.574645 -1.725590 -1.036445 -4.087318 -7.755625 -33.961038 0.968269 8.893622 24.643341 -3.200379 13.249462 11.330219 0.190200 -2.808400 -7.745700 6.115960 -1.404494 5.390480 13.700576 7.191251 8.252990 0.335842 -5.100758 15.664510 -1.246361 0.390519 19.742207 -0.102000 2.059100 -5.669100 0.391837 1.522280 1.824752 1.213450 1.948210 -0.893375 -3.462961 1.029017 0.202427 -6.655456 -3.773944 -14.627942 5.317732 -4.106205 2.484975 2.032000 -1.960800 4.286900 -5.089276 -1.644347 -0.114310 -87.803558 8.093490 4.130769 11.056869 -11.634264 -1.157765 -1.956203 -1.369475 16.016210 17.842075 14.186005 5.530100 -7.125000 0.000000 0.000000 -7.963300 46.730900 -0.342300 2.033270 2.073160 0.053322 84.409689 -5.432903 8.263715 -17.654922 26.355841 -4.851169 1.076503 -1.456163 1.371548 -25.089421 33.030621 -15.482400 7.125000 0.000000 0.000000 3.554200 7.162800 3.976900 
9.375069 17.715104 -25.471035 -1.209107 -17.608824 10.814954 -8.615514 -1.692805 -0.904597 -4.709997 -7.483678 -33.722161 1.048170 9.045469 25.231051 -3.110512 12.844710 10.873055 0.197500 -2.861400 -7.893200 6.101801 -1.362595 5.307388 13.070747 7.310734 7.281768 0.087212 -5.853617 17.772079 -1.402807 0.150030 21.919619 -0.034200 1.193200 -3.280500 -0.090695 1.521745 1.886787 1.122216 1.941770 -0.976071 -3.385154 1.009504 0.020379 -6.398078 -3.717600 -14.584677 5.168957 -4.084230 2.550620 1.928000 -1.956100 4.297900 -5.107123 -1.661805 -0.091298 -87.577456 7.941704 2.869624 10.724347 -11.183761 -1.062592 -2.067662 -1.302050 17.364539 18.284688 14.587502 5.827300 -7.125000 0.000000 0.000000 -7.571400 47.212800 -0.415700 2.028974 2.064570 0.036046 84.559029 -5.705758 7.357013 -17.875171 26.645872 -4.962044 1.078374 -1.468120 1.312574 -25.242421 33.502882 -15.763700 7.125000 0.000000 0.000000 3.563600 7.694400 4.016000 
9.375973 17.723640 -25.298396 -1.174692 -17.644530 10.671996 -8.633515 -1.656972 -0.780702 -4.984816 -7.420475 -33.408672 1.127324 9.193480 25.809378 -2.930832 12.185365 10.435169 0.138600 -2.399100 -6.610100 6.095105 -1.313314 5.196433 12.784957 7.401581 6.334171 -0.219732 -6.615332 19.914764 -1.513230 -0.581928 24.173947 -0.016500 0.828900 -2.278000 -0.146685 1.464958 1.920479 1.075798 1.869373 -1.044755 -3.424530 0.963640 -0.107389 -6.449330 -3.669784 -14.392251 5.331786 -4.027568 2.592798 2.014700 -1.920100 4.285100 -5.117319 -1.664324 -0.073920 -87.315369 7.871854 2.279365 10.521431 -10.912310 -1.006859 -2.051262 -1.274833 17.930525 17.917732 14.574974 5.694400 -7.125000 0.000000 0.000000 -7.933500 47.130500 -0.419600 2.008068 2.060402 0.027861 84.621011 -5.930565 6.634609 -18.061413 26.904898 -5.062024 1.066490 -1.487689 1.370263 -25.179496 34.073396 -15.935300 7.125000 0.000000 0.000000 3.718700 8.275900 4.223600 
